<svg xmlns="http://www.w3.org/2000/svg" width="10" height="5.22" viewBox="0 0 10 5.22">
  <g id="arrow" transform="translate(0 -117.272)">
    <path id="Path_2" data-name="Path 2" d="M9.646,117.338l-4.628,4.629L.389,117.338a.217.217,0,0,0-.307.307l4.782,4.782a.217.217,0,0,0,.307,0l4.782-4.782a.217.217,0,0,0-.3-.313l-.005.005Z" transform="translate(-0.021 0)" fill="#ffc107"/>
    <path id="Path_3" data-name="Path 3" d="M5,122.493a.217.217,0,0,1-.154-.063L.061,117.647a.217.217,0,0,1,.307-.307L5,121.968l4.628-4.629a.217.217,0,1,1,.313.3l-.005.005L5.15,122.429A.217.217,0,0,1,5,122.493Z" transform="translate(0 -0.001)" fill="#1a202e"/>
  </g>
</svg>
