<svg xmlns="http://www.w3.org/2000/svg" width="26.112" height="19" viewBox="0 0 26.112 19">
  <g id="upload" transform="translate(0 -66.65)">
    <g id="Group_82" data-name="Group 82" transform="translate(0 66.65)">
      <path id="Path_15" data-name="Path 15" d="M20.4,85.65H14.8V79.989h1.851a.579.579,0,0,0,.47-.918l-3.6-4.983a.574.574,0,0,0-.934,0l-3.6,4.983a.578.578,0,0,0,.47.918h1.851V85.65H5.031A5.611,5.611,0,0,1,0,80.037a5.315,5.315,0,0,1,2.636-4.589,3.564,3.564,0,0,1-.219-1.243,3.614,3.614,0,0,1,3.618-3.618,3.556,3.556,0,0,1,1.238.219,7.242,7.242,0,0,1,13.76,2.39A6.3,6.3,0,0,1,20.4,85.65Z" transform="translate(0 -66.65)" fill="#fff"/>
    </g>
  </g>
</svg>
