<?xml version="1.0" encoding="utf-8"?>
<!-- Generator: Adobe Illustrator 24.3.0, SVG Export Plug-In . SVG Version: 6.00 Build 0)  -->
<svg version="1.1" id="Layer_1" xmlns="http://www.w3.org/2000/svg" xmlns:xlink="http://www.w3.org/1999/xlink" x="0px" y="0px"
	 viewBox="0 0 18 18" style="enable-background:new 0 0 18 18;" xml:space="preserve">
<style type="text/css">
	.st0{fill:#FFFFFF;}
</style>
<g id="Layer_2_1_">
	<g id="Layer_1-2">
		<path class="st0" d="M10.6,9l7-7c0.4-0.5,0.4-1.2,0-1.6c-0.5-0.5-1.2-0.5-1.6,0l-7,7l-7-7c-0.5-0.5-1.2-0.5-1.7,0
			c-0.5,0.5-0.5,1.2,0,1.7l7,7l-7,7c-0.4,0.5-0.4,1.2,0,1.6C0.6,17.9,0.9,18,1.2,18c0.3,0,0.6-0.1,0.8-0.3l7-7l7,7
			c0.2,0.2,0.5,0.3,0.8,0.3c0.3,0,0.6-0.1,0.8-0.3c0.4-0.5,0.4-1.2,0-1.6L10.6,9z"/>
	</g>
</g>
</svg>
